<svg version="1.1" id="Layer_1" xmlns="http://www.w3.org/2000/svg" xmlns:xlink="http://www.w3.org/1999/xlink" x="0px" y="0px"
	 width="100%" viewBox="0 0 796 917" enable-background="new 0 0 796 917" xml:space="preserve">

<path fill="#2c180d" opacity="1.000000" stroke="none" 
	d="
M32.963177,496.113495 
	C20.927120,450.651764 15.608278,404.836060 18.531227,358.283539 
	C22.682043,292.175232 43.467308,231.719254 81.732918,177.467819 
	C111.165512,135.739471 147.859100,101.752121 191.255692,74.916054 
	C234.498184,48.175285 281.268799,30.753202 331.324371,22.250460 
	C389.758331,12.324511 447.744904,14.698386 504.947327,30.404537 
	C585.891235,52.629398 652.511658,96.896385 705.042908,162.272797 
	C740.164612,205.982590 763.268127,255.430161 773.705811,310.555817 
	C780.592407,346.926483 781.318054,383.539215 777.455750,420.411255 
	C773.855225,454.784912 768.011475,488.654297 757.821411,521.657898 
	C746.454529,558.472900 730.997131,593.583496 711.899597,627.069946 
	C675.688049,690.564636 629.476868,745.962097 576.057068,795.624512 
	C538.799805,830.261169 498.761627,861.227600 455.587524,888.070923 
	C430.869781,903.439148 404.204895,909.555847 375.334686,902.229797 
	C359.307648,898.162781 345.243347,890.055054 331.616058,881.014465 
	C293.596191,855.791199 257.657867,827.898254 224.127792,796.952148 
	C177.022522,753.476929 135.663589,705.149902 101.503296,650.803284 
	C71.251633,602.674988 47.847980,551.502380 32.963177,496.113495 
M127.673454,339.138916 
	C127.375702,340.773193 127.100647,342.412018 126.776878,344.041107 
	C118.459496,385.891327 119.609489,427.610840 130.582748,468.711700 
	C148.760529,536.797424 186.881119,591.314514 246.005264,629.949524 
	C321.160461,679.060059 402.185791,689.433105 487.461731,661.750916 
	C545.271606,642.984680 591.507874,607.596802 626.478333,558.002869 
	C662.047119,507.560364 678.517212,451.225342 676.406982,389.432190 
	C674.939819,346.471069 664.665405,305.874176 644.304504,268.014008 
	C615.714417,214.852081 574.272522,174.789093 519.953491,148.401535 
	C463.676147,121.062637 404.459717,113.833900 343.412811,126.363029 
	C275.460510,140.309402 220.332169,175.645828 178.075394,230.767090 
	C153.436157,262.907440 136.756424,298.801666 127.673454,339.138916 
z"/>

<path fill="#2c180d" opacity="1.000000" stroke="none" 
	d="
M556.969482,413.007263 
	C555.824585,413.735840 555.041748,414.415985 554.132935,414.790161 
	C543.081665,419.340759 540.352356,428.370209 539.933472,439.337036 
	C538.995850,463.883667 532.610718,486.902863 518.905273,507.576172 
	C505.628601,527.602661 487.588837,542.213440 466.642731,553.560852 
	C445.849182,564.825623 424.885590,575.999023 401.396423,580.247742 
	C351.234009,589.321228 309.424957,573.267395 275.070190,536.344238 
	C263.435516,523.839783 256.903564,508.237701 249.336807,493.302490 
	C243.026230,480.846588 237.079758,468.203156 231.130905,455.567993 
	C225.564819,443.745941 227.478607,438.036804 239.283600,432.247559 
	C282.546661,411.031036 325.870819,389.939056 369.182434,368.821533 
	C405.278900,351.221954 441.398010,333.668671 477.489746,316.059326 
	C488.167023,310.849854 490.648529,311.086365 499.078217,319.092346 
	C502.630646,322.466248 506.434814,323.903381 511.303345,322.335510 
	C549.632385,309.992126 582.628357,345.296753 575.520264,383.559357 
	C573.240234,395.832581 567.278503,405.510712 556.969482,413.007263 
M317.061432,537.500793 
	C341.826904,553.568298 368.710083,559.419128 397.584778,552.706055 
	C421.916382,547.049194 444.174469,535.866882 465.305389,522.961853 
	C505.118683,498.647247 523.720703,446.654419 508.172180,402.709503 
	C501.994843,385.250397 493.355133,368.648071 485.556366,351.785217 
	C482.958069,346.167114 479.521820,345.537140 473.118378,348.665100 
	C432.949219,368.286957 392.805725,387.961487 352.636047,407.582367 
	C324.110992,421.515381 295.553101,435.381104 267.021484,449.300720 
	C260.423645,452.519562 259.998810,453.830505 263.196167,460.447906 
	C267.529449,469.416351 272.051727,478.297455 276.203339,487.348846 
	C285.392883,507.384064 298.029236,524.571411 317.061432,537.500793 
M522.394348,366.212280 
	C526.246094,374.131622 530.056702,382.071350 533.963745,389.963287 
	C536.604614,395.297455 540.429504,395.608856 544.246948,390.904480 
	C553.267761,379.787811 551.486938,362.339081 540.453979,352.665222 
	C535.012207,347.893768 528.915283,346.415558 521.937195,348.220612 
	C516.835999,349.540161 515.580505,352.133118 517.864258,357.060242 
	C519.190552,359.921753 520.642456,362.725006 522.394348,366.212280 
z"/>

<path fill="#2c180d" opacity="1.000000" stroke="none" 
	d="
M329.262787,281.295471 
	C338.589935,276.827789 347.551239,272.463745 356.549133,268.176514 
	C360.150482,266.460571 362.517456,263.882233 360.566071,259.944458 
	C358.695801,256.170441 355.411987,256.717957 351.989227,258.373566 
	C337.202759,265.525818 322.410004,272.671143 307.496613,279.552551 
	C299.113281,283.420868 290.818146,279.231567 288.939697,270.627167 
	C287.715393,265.019165 290.319794,259.094635 295.765900,256.446106 
	C311.899109,248.600266 327.979156,240.615082 344.370789,233.339478 
	C359.594940,226.582077 377.294159,234.024368 384.549896,249.460068 
	C391.495758,264.236603 385.455933,282.517731 370.556549,290.023529 
	C348.441895,301.164154 326.101837,311.857452 303.854584,322.734741 
	C295.669830,326.736450 287.465332,330.697998 279.290192,334.719177 
	C273.375488,337.628540 271.409790,341.670929 273.675262,346.078033 
	C275.812897,350.236420 280.236298,351.116028 285.886475,348.358826 
	C328.291077,327.666046 370.661407,306.902771 413.123016,286.327759 
	C416.585724,284.649902 420.686096,283.254852 424.420532,283.409515 
	C430.237854,283.650452 434.515869,288.568237 435.288849,294.057678 
	C436.167877,300.299805 433.600922,305.216064 427.492157,308.227203 
	C411.424683,316.147217 395.301025,323.953461 379.195465,331.796173 
	C351.113953,345.470642 323.084198,359.252960 294.927002,372.769745 
	C275.512756,382.089508 253.040329,371.359863 247.782516,350.560059 
	C243.923721,335.294739 251.338715,319.536926 265.939545,312.325897 
	C286.903137,301.972412 307.918427,291.723511 329.262787,281.295471 
z"/>
</svg>